<?xml version="1.0" standalone="no"?>
<!DOCTYPE svg PUBLIC "-//W3C//DTD SVG 20010904//EN"
 "http://www.w3.org/TR/2001/REC-SVG-20010904/DTD/svg10.dtd">
<svg version="1.0" xmlns="http://www.w3.org/2000/svg"
 width="118.000000pt" height="400.000000pt" viewBox="0 0 118.000000 400.000000"
 preserveAspectRatio="xMidYMid meet">

<g transform="translate(0.000000,400.000000) scale(0.100000,-0.100000)"
fill="#000000" stroke="none">
<path d="M520 3020 l0 -130 -65 0 -65 0 0 -65 0 -65 -130 0 -130 0 0 -65 0
-65 130 0 130 0 0 -135 0 -135 -130 0 -130 0 0 -65 0 -65 -65 0 -65 0 0 -130
0 -130 195 0 195 0 0 -65 0 -65 -130 0 -130 0 0 -65 0 -65 130 0 130 0 0 -65
0 -64 68 -3 67 -3 3 -62 3 -63 59 0 59 0 3 63 3 62 68 3 67 3 0 64 0 65 130 0
130 0 0 65 0 65 -130 0 -130 0 0 65 0 65 195 0 195 0 0 130 0 130 -65 0 -65 0
0 65 0 65 -130 0 -130 0 0 135 0 135 130 0 131 0 -3 63 -3 62 -127 3 -128 3 0
64 0 65 -70 0 -70 0 0 130 0 130 -65 0 -65 0 0 -130z m135 -330 l0 -65 -65 0
-65 0 -3 54 c-5 80 -2 82 70 79 l63 -3 0 -65z m0 -260 l0 -65 -67 -3 -68 -3 0
64 c0 35 3 67 7 71 4 4 34 6 68 4 l60 -3 0 -65z m-265 -265 l0 -65 -65 0 -65
0 0 65 0 65 65 0 65 0 0 -65z m270 0 l0 -65 -70 0 -70 0 0 65 0 65 70 0 70 0
0 -65z m260 0 l0 -65 -65 0 -65 0 0 65 0 65 65 0 65 0 0 -65z m-260 -260 l0
-65 -70 0 -70 0 0 65 0 65 70 0 70 0 0 -65z"/>
<path d="M260 1375 l0 -195 -65 0 -65 0 0 -260 0 -260 -65 0 -65 0 0 -330 0
-330 130 0 130 0 0 65 0 65 65 0 65 0 0 -65 0 -65 65 0 65 0 0 65 0 65 70 0
70 0 0 -65 0 -65 60 0 60 0 0 65 0 65 70 0 70 0 0 -65 0 -65 130 0 130 0 0
330 0 330 -65 0 -65 0 0 260 0 260 -65 0 -65 0 0 195 0 195 -65 0 -64 0 -3
-62 -3 -63 -62 -3 -63 -3 0 -64 0 -65 65 0 65 0 0 -65 0 -65 65 0 65 0 0 -65
0 -65 -70 0 -70 0 0 65 0 65 -60 0 -60 0 0 -65 0 -65 -70 0 -70 0 0 65 0 65
-65 0 -65 0 0 65 0 65 65 0 65 0 0 65 0 65 -65 0 -65 0 0 65 0 65 -65 0 -65 0
0 -195z m130 -260 l0 -65 -65 0 -65 0 0 65 0 65 65 0 65 0 0 -65z m400 -260
l0 -65 65 0 65 0 0 -65 0 -65 65 0 65 0 0 -70 0 -70 -65 0 -65 0 0 -60 0 -59
63 -3 62 -3 3 -68 3 -67 -66 0 -65 0 0 65 0 65 -65 0 -65 0 0 -65 0 -65 -200
0 -200 0 0 65 0 65 -65 0 -65 0 0 -65 0 -65 -65 0 -65 0 0 70 0 70 65 0 65 0
0 60 0 60 -65 0 -65 0 0 70 0 70 65 0 65 0 0 65 0 65 65 0 65 0 0 65 0 65 200
0 200 0 0 -65z"/>
<path d="M397 783 c-4 -3 -7 -33 -7 -65 l0 -58 65 0 65 0 0 65 0 65 -58 0
c-32 0 -62 -3 -65 -7z"/>
<path d="M660 725 l0 -65 60 0 60 0 0 65 0 65 -60 0 -60 0 0 -65z"/>
<path d="M530 590 l0 -60 60 0 60 0 0 60 0 60 -60 0 -60 0 0 -60z"/>
<path d="M390 460 l0 -60 65 0 65 0 0 60 0 60 -65 0 -65 0 0 -60z"/>
<path d="M660 460 l0 -60 60 0 60 0 0 60 0 60 -60 0 -60 0 0 -60z"/>
<path d="M530 1245 l0 -65 60 0 60 0 0 65 0 65 -60 0 -60 0 0 -65z"/>
</g>
</svg>
