<svg version="1.1" id="Layer_1" xmlns="http://www.w3.org/2000/svg" xmlns:xlink="http://www.w3.org/1999/xlink" x="0px" y="0px"
	 width="100%" viewBox="0 0 118 400" enable-background="new 0 0 118 400" xml:space="preserve">
<path fill="#000000" opacity="1.000000" stroke="none" 
	d="
M1.000000,177.000000 
	C1.000000,118.387970 1.000000,59.775940 1.000000,1.081956 
	C40.241909,1.081956 79.484047,1.081956 119.000000,1.081956 
	C119.000000,59.353943 119.000000,117.708313 118.538361,176.530869 
	C117.245422,176.998505 116.414116,176.999664 115.582825,176.997162 
	C107.106949,176.971558 107.014816,176.983109 105.948463,168.585129 
	C105.518913,165.202347 103.634628,164.061066 100.571564,164.047836 
	C93.755234,164.018433 86.938950,163.980774 80.094208,163.491333 
	C80.015404,159.380188 79.965034,155.724152 79.931259,151.600388 
	C79.985626,147.129959 80.023399,143.127258 80.525635,139.104446 
	C87.302650,139.046692 93.618019,138.878052 99.926880,139.013092 
	C104.934395,139.120285 106.059364,136.398895 106.040710,132.064667 
	C106.022514,127.832886 105.157478,124.905609 100.056763,124.991791 
	C93.414925,125.104027 86.768288,124.932091 80.099464,124.431732 
	C79.880348,111.454277 80.713921,112.071823 68.101379,111.930885 
	C67.770576,111.927177 67.440010,111.901024 67.091614,111.424156 
	C67.039497,104.655472 66.877716,98.345284 67.011124,92.041328 
	C67.117416,87.018723 64.349640,85.947876 60.041382,85.959694 
	C55.798477,85.971344 52.904198,86.875931 52.991081,91.958054 
	C53.104538,98.594437 52.931293,105.235710 52.430763,111.899384 
	C39.360844,112.111771 40.099789,111.360168 39.921856,123.886673 
	C39.917164,124.217247 39.888367,124.547485 39.410610,124.897705 
	C32.643127,124.954865 26.333202,125.119629 20.029388,124.989166 
	C14.998362,124.885048 13.951164,127.671524 13.959698,131.970215 
	C13.968137,136.221802 14.895454,139.099548 19.969440,139.008987 
	C26.605700,138.890533 33.247047,139.057297 39.909912,139.555420 
	C39.979881,144.027298 40.026146,148.045135 40.054581,152.518799 
	C39.983334,156.632843 39.929913,160.291077 39.415642,163.957184 
	C32.470837,163.992004 25.986893,164.036636 19.502935,164.038605 
	C16.140524,164.039627 14.344359,165.430130 14.014339,169.009216 
	C13.280046,176.972672 13.168218,176.962967 4.990266,176.996124 
	C3.660194,177.001511 2.330090,176.998917 1.000000,177.000000 
z"/>
<path fill="#002608" opacity="1.000000" stroke="none" 
	d="
M14.000000,401.000000 
	C9.690807,401.000000 5.381614,401.000000 1.000000,401.000000 
	C1.000000,379.312500 1.000000,357.624908 1.461651,335.468750 
	C2.921631,334.999847 3.919972,335.002899 4.918284,334.998779 
	C13.648718,334.962616 13.978810,334.656616 13.994287,326.068237 
	C14.016475,313.755554 13.965804,301.442596 14.028686,289.130188 
	C14.060168,282.965759 14.652419,282.210266 20.886742,282.057861 
	C25.422739,281.947021 27.101145,279.924866 27.013718,275.591278 
	C26.882864,269.104950 27.017181,262.613739 26.994020,256.124756 
	C26.942183,241.601593 26.509457,243.183350 40.070667,243.138092 
	C40.543678,243.598511 40.818733,243.856552 41.077469,244.565460 
	C41.066772,248.646942 41.072395,252.277542 40.927170,256.294586 
	C40.879337,261.154694 40.982353,265.628387 41.070396,270.553772 
	C41.037228,274.642548 41.019028,278.279602 40.826084,282.103027 
	C40.406849,282.526489 40.162361,282.763611 39.466431,283.000977 
	C37.517269,283.006317 36.014023,283.096954 34.522850,283.000641 
	C29.857479,282.699402 27.949678,284.786591 27.950035,289.494446 
	C27.950392,294.193207 29.837133,296.289978 34.511715,296.003540 
	C36.335098,295.891815 38.171642,295.994812 40.466686,296.000000 
	C45.286724,296.000031 49.642269,296.000000 54.458626,296.000061 
	C58.613232,296.000122 62.307018,296.000061 66.465416,296.000153 
	C71.287010,296.000183 75.643990,296.000092 80.458542,296.000061 
	C82.557167,295.992188 84.202011,295.908844 85.838570,295.990784 
	C90.231087,296.210663 92.084198,294.163391 92.005714,289.788116 
	C91.908455,284.365143 90.915588,283.177490 85.431595,283.023285 
	C83.627655,282.972534 81.821373,283.005371 79.834579,282.842987 
	C79.418221,282.467529 79.200455,282.233246 78.999046,281.524597 
	C78.974129,277.406342 78.949852,273.746613 79.068069,269.698578 
	C79.117409,264.846954 79.024269,260.383667 78.943558,255.467285 
	C78.945084,251.373047 78.934181,247.731857 79.120132,243.900879 
	C79.578209,243.456497 79.839432,243.201935 80.555939,242.955856 
	C82.176231,242.975494 83.341270,242.985519 84.506271,242.998032 
	C92.528824,243.084106 92.963737,243.502579 92.993202,251.525040 
	C93.021919,259.347626 93.142166,267.173401 92.962578,274.991821 
	C92.854424,279.700500 94.405746,282.395325 99.517632,281.998627 
	C104.659447,281.599579 106.105560,284.361877 106.039101,289.038025 
	C105.882980,300.020752 106.002159,311.007294 105.997780,321.992310 
	C105.992226,335.895508 105.167717,335.007477 119.000000,335.000000 
	C119.000000,357.000061 119.000000,379.000122 119.000000,401.000000 
	C114.907127,401.000000 110.930222,401.000000 106.475098,400.538361 
	C105.976448,387.977905 105.976448,387.977875 93.955833,387.994568 
	C93.301514,387.995483 92.647186,387.998138 91.532883,388.000305 
	C87.384689,388.000397 83.696472,388.000183 79.543030,387.998413 
	C74.716377,387.997894 70.354942,387.998962 65.533447,388.000305 
	C61.384296,388.000397 57.695198,388.000183 53.541008,387.998627 
	C48.714725,387.998169 44.353539,387.999084 39.532402,388.000336 
	C35.383949,388.000427 31.695448,388.000214 27.542892,387.998474 
	C13.058248,387.970520 14.005557,387.152588 14.000000,401.000000 
M79.678169,374.226898 
	C84.153526,374.122345 88.628883,374.017792 94.002983,373.943481 
	C105.151550,374.093048 105.151703,374.093048 104.938721,363.110626 
	C104.932297,362.779785 104.915482,362.449158 105.239746,361.353699 
	C105.128136,356.863708 105.016525,352.373688 104.937813,346.986572 
	C104.935135,344.996948 104.942688,343.007233 104.927452,341.017731 
	C104.902657,337.779541 103.247322,336.340576 100.027359,336.025330 
	C92.024414,335.241760 92.032265,335.153839 91.999901,327.069366 
	C91.994583,325.742645 91.999199,324.415863 92.252419,322.293915 
	C94.018234,310.793060 94.095734,306.657440 77.970436,310.058594 
	C65.681122,310.067535 53.391815,310.076508 40.333469,309.761078 
	C27.856506,307.121552 24.467812,310.810547 28.053307,324.005707 
	C28.027050,326.001312 27.915930,328.000183 27.992121,329.991882 
	C28.153055,334.198761 26.184565,335.901550 21.997274,336.039215 
	C14.234454,336.294373 14.052474,336.646454 14.002490,344.508331 
	C13.995089,345.672546 14.000586,346.836792 13.999722,348.930237 
	C13.999853,353.286957 13.999984,357.643707 13.999890,362.915649 
	C14.015544,374.138702 14.015549,374.138977 25.398516,373.956238 
	C25.897196,373.948242 26.395660,373.927094 27.661346,374.226318 
	C32.139027,374.150543 36.616703,374.074738 42.017570,373.998413 
	C54.313869,373.972504 66.610168,373.946564 79.678169,374.226898 
z"/>
<path fill="#000000" opacity="1.000000" stroke="none" 
	d="
M119.000000,334.531342 
	C105.167717,335.007477 105.992226,335.895508 105.997780,321.992310 
	C106.002159,311.007294 105.882980,300.020752 106.039101,289.038025 
	C106.105560,284.361877 104.659447,281.599579 99.517632,281.998627 
	C94.405746,282.395325 92.854424,279.700500 92.962578,274.991821 
	C93.142166,267.173401 93.021919,259.347626 92.993202,251.525040 
	C92.963737,243.502579 92.528824,243.084106 84.506271,242.998032 
	C83.341270,242.985519 82.176231,242.975494 80.531876,242.500275 
	C80.067703,238.372269 80.082870,234.708344 80.559219,231.036987 
	C87.338829,231.010284 93.660027,230.868210 99.974800,231.010681 
	C105.027954,231.124710 106.042206,228.303955 106.039780,224.008957 
	C106.037361,219.726913 105.055740,216.881271 99.990952,216.991928 
	C93.343330,217.137146 86.689758,217.009796 80.030853,216.539780 
	C80.061150,212.405685 80.099342,208.731491 80.597488,205.048340 
	C93.704964,205.026260 106.352486,205.013138 119.000000,205.000000 
	C119.000000,248.020889 119.000000,291.041779 119.000000,334.531342 
z"/>
<path fill="#000000" opacity="1.000000" stroke="none" 
	d="
M39.872719,242.935715 
	C26.509457,243.183350 26.942183,241.601593 26.994020,256.124756 
	C27.017181,262.613739 26.882864,269.104950 27.013718,275.591278 
	C27.101145,279.924866 25.422739,281.947021 20.886742,282.057861 
	C14.652419,282.210266 14.060168,282.965759 14.028686,289.130188 
	C13.965804,301.442596 14.016475,313.755554 13.994287,326.068237 
	C13.978810,334.656616 13.648718,334.962616 4.918284,334.998779 
	C3.919972,335.002899 2.921631,334.999847 1.461651,335.000061 
	C1.000000,291.979095 1.000000,248.958206 1.468657,205.469116 
	C14.579433,205.020737 27.221552,205.040527 39.895790,205.515869 
	C39.940247,209.647507 39.952583,213.323624 39.499077,216.999725 
	C32.715504,217.009308 26.394760,217.142746 20.081007,216.989044 
	C15.069704,216.867035 13.941516,219.595749 13.960319,223.935760 
	C13.978671,228.171997 14.843349,231.107849 19.949583,231.007950 
	C26.596733,230.877869 33.249180,231.018616 39.922623,231.499588 
	C39.921505,235.616135 39.897114,239.275925 39.872719,242.935715 
z"/>
<path fill="#002608" opacity="1.000000" stroke="none" 
	d="
M119.000000,204.531342 
	C106.352486,205.013138 93.704964,205.026260 80.211426,204.885986 
	C77.559715,204.491119 75.760689,204.133194 73.947136,204.029633 
	C68.044136,203.692505 66.951332,202.708298 66.959656,197.473129 
	C66.967987,192.230850 68.151901,191.135696 74.009361,191.019089 
	C76.006271,190.979340 78.004478,191.004517 80.462585,191.000153 
	C84.616302,191.000198 88.309532,191.000107 92.466171,191.000015 
	C94.929535,190.996689 96.930038,191.023102 98.929298,190.984406 
	C104.848167,190.869873 105.951965,189.845490 105.960808,184.529602 
	C105.969704,179.181839 104.856834,178.124176 98.992798,178.009689 
	C96.660416,177.964127 94.326431,178.000763 91.533173,178.000275 
	C87.385994,178.000366 83.698814,178.000183 79.549194,177.997894 
	C77.259888,177.988480 75.427963,177.890472 73.607132,177.991760 
	C69.090508,178.242981 66.856789,176.454697 66.863708,171.647156 
	C66.870262,167.094833 68.512917,164.835556 73.277969,164.914459 
	C75.553558,164.952118 77.840721,164.291046 80.122643,163.946472 
	C86.938950,163.980774 93.755234,164.018433 100.571564,164.047836 
	C103.634628,164.061066 105.518913,165.202347 105.948463,168.585129 
	C107.014816,176.983109 107.106949,176.971558 115.582825,176.997162 
	C116.414116,176.999664 117.245422,176.998505 118.538361,176.999527 
	C119.000000,186.020889 119.000000,195.041794 119.000000,204.531342 
z"/>
<path fill="#002608" opacity="1.000000" stroke="none" 
	d="
M39.863670,205.060333 
	C27.221552,205.040527 14.579433,205.020737 1.468657,205.000458 
	C1.000000,195.979111 1.000000,186.958206 1.000000,177.468658 
	C2.330090,176.998917 3.660194,177.001511 4.990266,176.996124 
	C13.168218,176.962967 13.280046,176.972672 14.014339,169.009216 
	C14.344359,165.430130 16.140524,164.039627 19.502935,164.038605 
	C25.986893,164.036636 32.470837,163.992004 39.804447,164.108398 
	C42.460430,164.488892 44.260281,164.836792 46.074268,164.942780 
	C51.942432,165.285690 53.048485,166.292892 53.035679,171.530991 
	C53.022888,176.763062 51.838997,177.854004 45.976688,177.972824 
	C43.980705,178.013275 41.983490,177.992691 39.527328,178.000305 
	C35.380764,178.000412 31.693705,178.000198 27.542610,177.998505 
	C25.104904,177.998840 23.130741,177.972839 21.157656,178.007690 
	C15.109778,178.114532 13.972817,179.194763 14.035157,184.711594 
	C14.093840,189.904678 15.171876,190.876053 21.091692,190.982422 
	C23.393635,191.023773 25.696815,190.996185 28.460093,191.000153 
	C32.613136,191.000198 36.305519,191.000092 40.459755,191.000641 
	C42.913921,191.010406 44.910179,191.104095 46.897751,191.011459 
	C51.393414,190.801926 53.110863,192.991074 53.093567,197.356995 
	C53.077122,201.508850 51.886665,204.040421 47.191845,204.040955 
	C44.749081,204.041245 42.306393,204.699356 39.863670,205.060333 
z"/>
<path fill="#004D12" opacity="1.000000" stroke="none" 
	d="
M91.992867,388.000000 
	C92.647186,387.998138 93.301514,387.995483 93.955833,387.994568 
	C105.976448,387.977875 105.976448,387.977905 105.998444,400.538361 
	C101.643097,401.000000 97.286201,401.000000 92.464478,400.536804 
	C91.997391,396.049103 91.995132,392.024536 91.992867,388.000000 
z"/>
<path fill="#004D12" opacity="1.000000" stroke="none" 
	d="
M65.993500,388.000000 
	C70.354942,387.998962 74.716377,387.997894 79.541656,388.461609 
	C80.003662,392.950897 80.001823,396.975464 80.000000,401.000000 
	C75.643097,401.000000 71.286201,401.000000 66.464417,400.536804 
	C65.997528,396.049103 65.995514,392.024536 65.993500,388.000000 
z"/>
<path fill="#004D12" opacity="1.000000" stroke="none" 
	d="
M39.992352,388.000000 
	C44.353539,387.999084 48.714725,387.998169 53.539608,388.461792 
	C54.002201,392.950897 54.001099,396.975464 54.000000,401.000000 
	C49.643101,401.000000 45.286201,401.000000 40.464569,400.536804 
	C39.997345,396.049103 39.994846,392.024536 39.992352,388.000000 
z"/>
<path fill="#004D12" opacity="1.000000" stroke="none" 
	d="
M14.464651,401.000000 
	C14.005557,387.152588 13.058248,387.970520 27.542055,388.461670 
	C28.003513,392.950897 28.001757,396.975464 28.000000,401.000000 
	C23.643101,401.000000 19.286201,401.000000 14.464651,401.000000 
z"/>
<path fill="#000000" opacity="1.000000" stroke="none" 
	d="
M80.460632,401.000000 
	C80.001823,396.975464 80.003662,392.950897 80.006874,388.463196 
	C83.696472,388.000183 87.384689,388.000397 91.532883,388.000305 
	C91.995132,392.024536 91.997391,396.049103 91.999825,400.536804 
	C88.307091,401.000000 84.614182,401.000000 80.460632,401.000000 
z"/>
<path fill="#000000" opacity="1.000000" stroke="none" 
	d="
M54.460636,401.000000 
	C54.001099,396.975464 54.002201,392.950897 54.004700,388.463196 
	C57.695198,388.000183 61.384296,388.000397 65.533447,388.000305 
	C65.995514,392.024536 65.997528,396.049103 65.999771,400.536804 
	C62.307091,401.000000 58.614182,401.000000 54.460636,401.000000 
z"/>
<path fill="#000000" opacity="1.000000" stroke="none" 
	d="
M28.460636,401.000000 
	C28.001757,396.975464 28.003513,392.950897 28.006107,388.463196 
	C31.695448,388.000214 35.383949,388.000427 39.532402,388.000336 
	C39.994846,392.024536 39.997345,396.049103 39.999920,400.536804 
	C36.307091,401.000000 32.614182,401.000000 28.460636,401.000000 
z"/>
<path fill="#004C12" opacity="1.000000" stroke="none" 
	d="
M39.986835,178.000000 
	C41.983490,177.992691 43.980705,178.013275 45.976688,177.972824 
	C51.838997,177.854004 53.022888,176.763062 53.035679,171.530991 
	C53.048485,166.292892 51.942432,165.285690 46.074268,164.942780 
	C44.260281,164.836792 42.460430,164.488892 40.265301,164.100525 
	C39.929913,160.291077 39.983334,156.632843 40.513779,152.491058 
	C45.365974,152.014130 49.741150,152.020767 54.088112,152.484879 
	C54.063862,155.251343 53.577408,157.712601 54.231628,159.819672 
	C54.728077,161.418625 56.507519,163.478745 58.008755,163.757523 
	C64.536453,164.969696 65.951546,163.576767 65.982368,156.984314 
	C65.990074,155.335556 65.920738,153.686432 66.357841,152.016266 
	C71.190796,152.019409 75.552734,152.043762 79.914665,152.068115 
	C79.965034,155.724152 80.015404,159.380188 80.094208,163.491333 
	C77.840721,164.291046 75.553558,164.952118 73.277969,164.914459 
	C68.512917,164.835556 66.870262,167.094833 66.863708,171.647156 
	C66.856789,176.454697 69.090508,178.242981 73.607132,177.991760 
	C75.427963,177.890472 77.259888,177.988480 79.547440,178.461090 
	C80.006111,182.950912 80.004097,186.975449 80.002090,191.000000 
	C78.004478,191.004517 76.006271,190.979340 74.009361,191.019089 
	C68.151901,191.135696 66.967987,192.230850 66.959656,197.473129 
	C66.951332,202.708298 68.044136,203.692505 73.947136,204.029633 
	C75.760689,204.133194 77.559715,204.491119 79.751465,204.894943 
	C80.099342,208.731491 80.061150,212.405685 79.563065,216.548904 
	C74.727570,217.004990 70.351974,216.992050 65.983704,216.983948 
	C65.991020,216.988770 65.970413,216.969604 65.976639,216.513672 
	C65.964622,213.747574 66.433456,211.283920 65.769501,209.177261 
	C65.265182,207.577133 63.488689,205.519348 61.986252,205.240921 
	C55.459084,204.031311 54.056618,205.417923 54.014210,212.024704 
	C54.003620,213.674652 54.048649,215.324982 53.785774,216.986984 
	C53.315208,217.006622 53.126976,217.014404 52.481285,217.028229 
	C48.004189,217.022751 43.984554,217.011246 39.964920,216.999725 
	C39.952583,213.323624 39.940247,209.647507 39.895790,205.515869 
	C42.306393,204.699356 44.749081,204.041245 47.191845,204.040955 
	C51.886665,204.040421 53.077122,201.508850 53.093567,197.356995 
	C53.110863,192.991074 51.393414,190.801926 46.897751,191.011459 
	C44.910179,191.104095 42.913921,191.010406 40.459190,190.537476 
	C39.993462,186.049088 39.990150,182.024551 39.986835,178.000000 
M61.313896,190.955826 
	C64.003380,190.996490 66.164207,190.051544 65.837318,187.031647 
	C65.521172,184.110962 65.408363,180.128784 63.580246,178.714142 
	C61.874561,177.394302 56.771313,177.771469 55.449249,179.334717 
	C53.814690,181.267441 53.862240,185.357254 54.542213,188.188660 
	C54.860062,189.512161 58.370682,190.068909 61.313896,190.955826 
z"/>
<path fill="#002608" opacity="1.000000" stroke="none" 
	d="
M52.881401,111.874886 
	C52.931293,105.235710 53.104538,98.594437 52.991081,91.958054 
	C52.904198,86.875931 55.798477,85.971344 60.041382,85.959694 
	C64.349640,85.947876 67.117416,87.018723 67.011124,92.041328 
	C66.877716,98.345284 67.039497,104.655472 67.005920,111.511337 
	C66.937965,112.059692 66.766434,112.233894 66.325775,112.194626 
	C61.658360,112.172066 57.431606,112.188766 53.123943,112.122864 
	C53.043037,112.040260 52.881401,111.874886 52.881401,111.874886 
z"/>
<path fill="#002608" opacity="1.000000" stroke="none" 
	d="
M39.886208,139.101364 
	C33.247047,139.057297 26.605700,138.890533 19.969440,139.008987 
	C14.895454,139.099548 13.968137,136.221802 13.959698,131.970215 
	C13.951164,127.671524 14.998362,124.885048 20.029388,124.989166 
	C26.333202,125.119629 32.643127,124.954865 39.491646,124.976639 
	C40.032875,125.035744 40.194778,125.193779 40.165001,125.640076 
	C40.171894,130.314133 40.208561,134.541885 40.155533,138.852631 
	C40.065838,138.935623 39.886208,139.101364 39.886208,139.101364 
z"/>
<path fill="#002608" opacity="1.000000" stroke="none" 
	d="
M80.123711,124.882462 
	C86.768288,124.932091 93.414925,125.104027 100.056763,124.991791 
	C105.157478,124.905609 106.022514,127.832886 106.040710,132.064667 
	C106.059364,136.398895 104.934395,139.120285 99.926880,139.013092 
	C93.618019,138.878052 87.302650,139.046692 80.506912,138.815613 
	C80.011635,138.354752 79.999535,138.162598 79.982712,137.511414 
	C79.908562,133.111710 79.839134,129.171036 79.858154,125.143341 
	C79.946617,125.056328 80.123711,124.882462 80.123711,124.882462 
z"/>
<path fill="#002909" opacity="1.000000" stroke="none" 
	d="
M79.987427,137.970428 
	C79.999535,138.162598 80.011635,138.354752 80.042458,138.835724 
	C80.023399,143.127258 79.985626,147.129959 79.931259,151.600372 
	C75.552734,152.043762 71.190796,152.019409 66.389862,152.006104 
	C65.950851,152.017166 65.980133,152.077621 66.001816,151.607635 
	C66.003677,146.747192 65.983849,142.356735 66.430389,137.991028 
	C71.260323,138.000641 75.623871,137.985535 79.987427,137.970428 
z"/>
<path fill="#002708" opacity="1.000000" stroke="none" 
	d="
M54.116322,152.027390 
	C49.741150,152.020767 45.365974,152.014130 40.531605,152.035248 
	C40.026146,148.045135 39.979881,144.027298 39.909912,139.555420 
	C39.886208,139.101364 40.065838,138.935623 40.596420,138.879715 
	C45.136463,138.844009 49.145924,138.864212 53.142738,139.350800 
	C53.431103,143.901398 53.732113,147.985641 54.043072,152.038147 
	C54.053017,152.006424 54.116322,152.027390 54.116322,152.027390 
z"/>
<path fill="#002608" opacity="1.000000" stroke="none" 
	d="
M67.023651,111.972519 
	C67.440010,111.901024 67.770576,111.927177 68.101379,111.930885 
	C80.713921,112.071823 79.880348,111.454277 80.099464,124.431732 
	C80.123711,124.882462 79.946617,125.056328 79.416550,125.115128 
	C74.885109,125.165367 70.883751,125.156807 66.883476,124.676781 
	C66.845192,120.214836 66.805809,116.224365 66.766434,112.233894 
	C66.766434,112.233894 66.937965,112.059692 67.023651,111.972519 
z"/>
<path fill="#002608" opacity="1.000000" stroke="none" 
	d="
M39.951843,124.956810 
	C39.888367,124.547485 39.917164,124.217247 39.921856,123.886673 
	C40.099789,111.360168 39.360844,112.111771 52.430763,111.899384 
	C52.881401,111.874886 53.043037,112.040260 53.095058,112.564667 
	C52.899651,125.418221 53.725529,124.980034 41.181252,125.140060 
	C40.852253,125.144257 40.523594,125.175262 40.194778,125.193771 
	C40.194778,125.193779 40.032875,125.035744 39.951843,124.956810 
z"/>
<path fill="#004D12" opacity="1.000000" stroke="none" 
	d="
M78.890572,310.090271 
	C94.095734,306.657440 94.018234,310.793060 91.667633,322.669922 
	C89.254852,323.036011 87.419762,323.125610 85.600327,322.995758 
	C81.564423,322.707703 79.986488,324.462433 79.947227,328.537598 
	C79.878754,335.645172 79.697067,335.797791 72.348091,335.956879 
	C68.564873,336.038788 66.962288,337.431458 66.974144,341.288605 
	C66.992027,347.103210 67.503563,348.093170 73.416656,347.905548 
	C78.388046,347.747742 80.601624,349.534363 80.017029,354.538849 
	C79.940659,355.192596 80.067650,355.867371 80.047470,356.530823 
	C79.925293,360.547760 82.529419,361.052338 85.671867,360.989624 
	C88.736031,360.928467 91.652687,361.188507 92.009598,356.696716 
	C92.695114,348.069214 92.858406,348.084839 101.417168,347.987579 
	C102.579994,347.974365 103.742348,347.919342 104.904915,347.883698 
	C105.016525,352.373688 105.128136,356.863708 104.621216,361.707764 
	C92.811394,361.876984 92.811119,361.876984 93.052979,372.925903 
	C93.060188,373.255219 93.086716,373.584137 93.104233,373.913239 
	C88.628883,374.017792 84.153526,374.122345 79.315002,373.622009 
	C78.961845,371.194366 78.872231,369.364502 79.002121,367.550354 
	C79.292534,363.494141 77.469032,361.987518 73.439308,361.948273 
	C66.348015,361.879333 66.199577,361.702698 66.040939,354.363922 
	C65.959938,350.616852 64.621765,348.967957 60.752357,348.974060 
	C54.928547,348.983215 54.134933,349.502106 54.027859,355.345642 
	C53.963963,358.832733 54.095699,362.248627 49.061264,361.982300 
	C39.875309,361.496277 41.089970,363.911652 41.019005,370.520264 
	C41.006557,371.679413 41.067394,372.839355 41.094383,373.998932 
	C36.616703,374.074738 32.139027,374.150543 27.303478,373.618103 
	C27.112629,362.012054 27.112629,362.012054 15.986403,362.003021 
	C15.324306,362.002502 14.662210,362.001312 14.000114,362.000427 
	C13.999984,357.643707 13.999853,353.286957 14.463938,348.464874 
	C16.424002,347.999207 17.919859,347.995819 19.415697,347.999115 
	C27.513744,348.016937 27.720444,348.011444 27.953060,356.013245 
	C28.084999,360.551758 30.596252,360.979034 34.148548,361.034210 
	C37.962845,361.093414 39.990936,360.012909 40.055077,355.714966 
	C40.163860,348.425415 40.363319,348.252319 47.905968,348.043243 
	C51.903046,347.932465 52.910591,346.082642 53.058426,342.460358 
	C53.247269,337.833221 51.717609,335.597961 46.820625,335.956573 
	C43.443810,336.203888 39.767036,336.322510 40.038822,331.191193 
	C40.534916,321.824829 38.103828,323.087860 31.072098,323.015381 
	C30.075850,323.005127 29.078840,323.068665 28.082182,323.098053 
	C24.467812,310.810547 27.856506,307.121552 40.694153,310.374573 
	C41.042503,312.653534 41.151760,314.330566 40.994591,315.982269 
	C40.556362,320.587708 42.678406,322.122345 47.143993,322.072754 
	C53.712212,321.999695 53.880939,322.225403 53.947365,329.295502 
	C53.984375,333.235138 55.258156,335.106445 59.453949,335.032928 
	C65.166962,334.932800 65.916237,334.492371 65.953690,328.389526 
	C65.976738,324.633942 66.438545,321.992096 71.260048,321.932770 
	C79.042152,321.837006 79.042419,321.596985 78.987816,313.585968 
	C78.979874,312.420563 78.924171,311.255493 78.890572,310.090271 
z"/>
<path fill="#004D12" opacity="1.000000" stroke="none" 
	d="
M80.000977,296.000000 
	C75.643990,296.000092 71.287010,296.000183 66.464615,295.537903 
	C65.993370,292.924988 65.850479,290.764221 66.010292,288.626099 
	C66.341537,284.194122 64.142876,282.991302 60.035248,282.925079 
	C55.505451,282.852081 53.624603,284.565552 53.979664,289.054779 
	C54.161667,291.355957 54.002686,293.684052 53.997810,296.000000 
	C49.642269,296.000000 45.286724,296.000031 40.465855,295.536835 
	C39.972977,291.049347 39.945427,287.025024 39.917877,283.000732 
	C40.162361,282.763611 40.406849,282.526489 41.284332,282.121887 
	C44.061741,281.954681 46.206863,281.920197 48.350410,281.963562 
	C51.373432,282.024719 52.802017,280.708710 52.994659,277.564178 
	C53.390381,271.104767 52.537956,270.046661 46.032692,270.013306 
	C44.383781,270.004852 42.734486,270.070465 41.085369,270.102081 
	C40.982353,265.628387 40.879337,261.154694 41.379040,256.316742 
	C53.016636,256.096039 53.016670,256.096039 52.990993,245.034729 
	C52.990227,244.704285 52.986980,244.373856 52.997955,243.759308 
	C53.019772,243.285797 53.028522,243.096405 53.495979,242.944199 
	C57.985691,243.093292 62.016685,243.205200 66.214401,243.434296 
	C66.603622,243.707489 66.826553,243.862854 67.038574,244.474762 
	C66.952957,256.139954 66.952957,256.140137 77.939445,255.959305 
	C78.270134,255.953857 78.600571,255.933685 78.931129,255.920364 
	C79.024269,260.383667 79.117409,264.846954 78.615906,269.677673 
	C76.370560,270.034271 74.709595,270.137604 73.071098,269.990601 
	C68.619957,269.591217 66.913040,271.452576 66.913963,275.992676 
	C66.914879,280.521271 68.594788,282.388977 73.059082,282.012085 
	C75.026077,281.846008 77.018707,281.983490 78.999695,281.983154 
	C79.200455,282.233246 79.418221,282.467529 79.831871,283.306152 
	C80.007484,287.950897 80.004227,291.975464 80.000977,296.000000 
M56.977108,268.813416 
	C58.806423,268.835144 60.938324,269.451355 62.382385,268.716278 
	C63.913776,267.936737 65.559776,265.976257 65.777321,264.347443 
	C66.113289,261.831848 67.188950,257.985565 63.176762,257.385071 
	C60.469784,256.979950 56.067268,257.162628 55.025524,258.769470 
	C53.251301,261.506165 52.548218,265.711823 56.977108,268.813416 
z"/>
<path fill="#000000" opacity="1.000000" stroke="none" 
	d="
M28.067745,323.551880 
	C29.078840,323.068665 30.075850,323.005127 31.072098,323.015381 
	C38.103828,323.087860 40.534916,321.824829 40.038822,331.191193 
	C39.767036,336.322510 43.443810,336.203888 46.820625,335.956573 
	C51.717609,335.597961 53.247269,337.833221 53.058426,342.460358 
	C52.910591,346.082642 51.903046,347.932465 47.905968,348.043243 
	C40.363319,348.252319 40.163860,348.425415 40.055077,355.714966 
	C39.990936,360.012909 37.962845,361.093414 34.148548,361.034210 
	C30.596252,360.979034 28.084999,360.551758 27.953060,356.013245 
	C27.720444,348.011444 27.513744,348.016937 19.415697,347.999115 
	C17.919859,347.995819 16.424002,347.999207 14.464134,348.000275 
	C14.000586,346.836792 13.995089,345.672546 14.002490,344.508331 
	C14.052474,336.646454 14.234454,336.294373 21.997274,336.039215 
	C26.184565,335.901550 28.153055,334.198761 27.992121,329.991882 
	C27.915930,328.000183 28.027050,326.001312 28.067745,323.551880 
z"/>
<path fill="#000000" opacity="1.000000" stroke="none" 
	d="
M104.921364,347.435120 
	C103.742348,347.919342 102.579994,347.974365 101.417168,347.987579 
	C92.858406,348.084839 92.695114,348.069214 92.009598,356.696716 
	C91.652687,361.188507 88.736031,360.928467 85.671867,360.989624 
	C82.529419,361.052338 79.925293,360.547760 80.047470,356.530823 
	C80.067650,355.867371 79.940659,355.192596 80.017029,354.538849 
	C80.601624,349.534363 78.388046,347.747742 73.416656,347.905548 
	C67.503563,348.093170 66.992027,347.103210 66.974144,341.288605 
	C66.962288,337.431458 68.564873,336.038788 72.348091,335.956879 
	C79.697067,335.797791 79.878754,335.645172 79.947227,328.537598 
	C79.986488,324.462433 81.564423,322.707703 85.600327,322.995758 
	C87.419762,323.125610 89.254852,323.036011 91.541031,323.067535 
	C91.999199,324.415863 91.994583,325.742645 91.999901,327.069366 
	C92.032265,335.153839 92.024414,335.241760 100.027359,336.025330 
	C103.247322,336.340576 104.902657,337.779541 104.927452,341.017731 
	C104.942688,343.007233 104.935135,344.996948 104.921364,347.435120 
z"/>
<path fill="#000000" opacity="1.000000" stroke="none" 
	d="
M41.555977,373.998657 
	C41.067394,372.839355 41.006557,371.679413 41.019005,370.520264 
	C41.089970,363.911652 39.875309,361.496277 49.061264,361.982300 
	C54.095699,362.248627 53.963963,358.832733 54.027859,355.345642 
	C54.134933,349.502106 54.928547,348.983215 60.752357,348.974060 
	C64.621765,348.967957 65.959938,350.616852 66.040939,354.363922 
	C66.199577,361.702698 66.348015,361.879333 73.439308,361.948273 
	C77.469032,361.987518 79.292534,363.494141 79.002121,367.550354 
	C78.872231,369.364502 78.961845,371.194366 78.929153,373.468872 
	C66.610168,373.946564 54.313869,373.972504 41.555977,373.998657 
z"/>
<path fill="#000000" opacity="1.000000" stroke="none" 
	d="
M78.430504,310.074432 
	C78.924171,311.255493 78.979874,312.420563 78.987816,313.585968 
	C79.042419,321.596985 79.042152,321.837006 71.260048,321.932770 
	C66.438545,321.992096 65.976738,324.633942 65.953690,328.389526 
	C65.916237,334.492371 65.166962,334.932800 59.453949,335.032928 
	C55.258156,335.106445 53.984375,333.235138 53.947365,329.295502 
	C53.880939,322.225403 53.712212,321.999695 47.143993,322.072754 
	C42.678406,322.122345 40.556362,320.587708 40.994591,315.982269 
	C41.151760,314.330566 41.042503,312.653534 41.078674,310.536743 
	C53.391815,310.076508 65.681122,310.067535 78.430504,310.074432 
z"/>
<path fill="#004D12" opacity="1.000000" stroke="none" 
	d="
M67.049904,244.017624 
	C66.826553,243.862854 66.603622,243.707489 66.227356,242.938629 
	C66.072052,240.170059 66.027504,238.013336 66.078339,235.858887 
	C66.171440,231.913467 64.277550,230.161240 60.341599,230.098129 
	C54.737312,230.008286 53.291592,231.251663 53.109634,236.937653 
	C53.046001,238.926163 53.059174,240.917145 53.037270,242.906998 
	C53.028522,243.096405 53.019772,243.285797 52.539505,243.749207 
	C48.409920,244.053665 44.751858,244.084137 41.093792,244.114609 
	C40.818733,243.856552 40.543678,243.598511 40.070671,243.138092 
	C39.897114,239.275925 39.921505,235.616135 40.313606,231.361481 
	C41.327583,230.616241 41.978321,230.318176 42.619446,230.337585 
	C53.234226,230.659088 53.323536,229.393463 52.993805,218.017166 
	C52.984184,217.685257 52.957481,217.353851 52.938744,217.022202 
	C53.126976,217.014404 53.315208,217.006622 54.240860,216.992920 
	C58.642330,216.981186 62.306370,216.975403 65.970413,216.969604 
	C65.970413,216.969604 65.991020,216.988770 66.015717,217.421356 
	C66.104584,218.999344 66.142365,220.146912 66.237160,221.289764 
	C66.895058,229.221497 67.284058,229.562592 75.290680,230.155411 
	C76.906212,230.275009 78.496246,230.739136 80.098030,231.044403 
	C80.082870,234.708344 80.067703,238.372269 80.076599,242.491791 
	C79.839432,243.201935 79.578209,243.456497 78.666588,243.879120 
	C74.360764,244.037308 70.705330,244.027466 67.049904,244.017624 
z"/>
<path fill="#000000" opacity="1.000000" stroke="none" 
	d="
M39.466431,283.000977 
	C39.945427,287.025024 39.972977,291.049347 40.001358,295.536804 
	C38.171642,295.994812 36.335098,295.891815 34.511715,296.003540 
	C29.837133,296.289978 27.950392,294.193207 27.950035,289.494446 
	C27.949678,284.786591 29.857479,282.699402 34.522850,283.000641 
	C36.014023,283.096954 37.517269,283.006317 39.466431,283.000977 
z"/>
<path fill="#000000" opacity="1.000000" stroke="none" 
	d="
M54.458626,296.000061 
	C54.002686,293.684052 54.161667,291.355957 53.979664,289.054779 
	C53.624603,284.565552 55.505451,282.852081 60.035248,282.925079 
	C64.142876,282.991302 66.341537,284.194122 66.010292,288.626099 
	C65.850479,290.764221 65.993370,292.924988 66.000000,295.537750 
	C62.307018,296.000061 58.613232,296.000122 54.458626,296.000061 
z"/>
<path fill="#000000" opacity="1.000000" stroke="none" 
	d="
M80.458542,296.000061 
	C80.004227,291.975464 80.007484,287.950897 80.013443,283.463196 
	C81.821373,283.005371 83.627655,282.972534 85.431595,283.023285 
	C90.915588,283.177490 91.908455,284.365143 92.005714,289.788116 
	C92.084198,294.163391 90.231087,296.210663 85.838570,295.990784 
	C84.202011,295.908844 82.557167,295.992188 80.458542,296.000061 
z"/>
<path fill="#000000" opacity="1.000000" stroke="none" 
	d="
M14.000002,362.458038 
	C14.662210,362.001312 15.324306,362.002502 15.986403,362.003021 
	C27.112629,362.012054 27.112629,362.012054 26.919918,373.460999 
	C26.395660,373.927094 25.897196,373.948242 25.398516,373.956238 
	C14.015549,374.138977 14.015544,374.138702 14.000002,362.458038 
z"/>
<path fill="#000000" opacity="1.000000" stroke="none" 
	d="
M67.038574,244.474762 
	C70.705330,244.027466 74.360764,244.037308 78.469734,244.068909 
	C78.934181,247.731857 78.945084,251.373047 78.943558,255.467285 
	C78.600571,255.933685 78.270134,255.953857 77.939445,255.959305 
	C66.952957,256.140137 66.952957,256.139954 67.038574,244.474762 
z"/>
<path fill="#000000" opacity="1.000000" stroke="none" 
	d="
M93.553604,373.928345 
	C93.086716,373.584137 93.060188,373.255219 93.052979,372.925903 
	C92.811119,361.876984 92.811394,361.876984 104.453094,362.090088 
	C104.915482,362.449158 104.932297,362.779785 104.938721,363.110626 
	C105.151703,374.093048 105.151550,374.093048 93.553604,373.928345 
z"/>
<path fill="#000000" opacity="1.000000" stroke="none" 
	d="
M41.077469,244.565460 
	C44.751858,244.084137 48.409920,244.053665 52.526436,244.033310 
	C52.986980,244.373856 52.990227,244.704285 52.990993,245.034729 
	C53.016670,256.096039 53.016636,256.096039 41.529892,255.930328 
	C41.072395,252.277542 41.066772,248.646942 41.077469,244.565460 
z"/>
<path fill="#000000" opacity="1.000000" stroke="none" 
	d="
M78.999046,281.524597 
	C77.018707,281.983490 75.026077,281.846008 73.059082,282.012085 
	C68.594788,282.388977 66.914879,280.521271 66.913963,275.992676 
	C66.913040,271.452576 68.619957,269.591217 73.071098,269.990601 
	C74.709595,270.137604 76.370560,270.034271 78.473427,270.066040 
	C78.949852,273.746613 78.974129,277.406342 78.999046,281.524597 
z"/>
<path fill="#000000" opacity="1.000000" stroke="none" 
	d="
M41.070396,270.553772 
	C42.734486,270.070465 44.383781,270.004852 46.032692,270.013306 
	C52.537956,270.046661 53.390381,271.104767 52.994659,277.564178 
	C52.802017,280.708710 51.373432,282.024719 48.350410,281.963562 
	C46.206863,281.920197 44.061741,281.954681 41.459076,281.935547 
	C41.019028,278.279602 41.037228,274.642548 41.070396,270.553772 
z"/>
<path fill="#002608" opacity="1.000000" stroke="none" 
	d="
M80.559219,231.036972 
	C78.496246,230.739136 76.906212,230.275009 75.290680,230.155411 
	C67.284058,229.562592 66.895058,229.221497 66.237160,221.289764 
	C66.142365,220.146912 66.104584,218.999344 66.008408,217.416534 
	C70.351974,216.992050 74.727570,217.004990 79.570953,217.008804 
	C86.689758,217.009796 93.343330,217.137146 99.990952,216.991928 
	C105.055740,216.881271 106.037361,219.726913 106.039780,224.008957 
	C106.042206,228.303955 105.027954,231.124710 99.974800,231.010681 
	C93.660027,230.868210 87.338829,231.010284 80.559219,231.036972 
z"/>
<path fill="#002608" opacity="1.000000" stroke="none" 
	d="
M52.481285,217.028229 
	C52.957481,217.353851 52.984184,217.685257 52.993805,218.017166 
	C53.323536,229.393463 53.234226,230.659088 42.619446,230.337585 
	C41.978321,230.318176 41.327583,230.616241 40.290333,230.904724 
	C33.249180,231.018616 26.596733,230.877869 19.949583,231.007950 
	C14.843349,231.107849 13.978671,228.171997 13.960319,223.935760 
	C13.941516,219.595749 15.069704,216.867035 20.081007,216.989044 
	C26.394760,217.142746 32.715504,217.009308 39.499077,216.999725 
	C43.984554,217.011246 48.004189,217.022751 52.481285,217.028229 
z"/>
<path fill="#004D12" opacity="1.000000" stroke="none" 
	d="
M91.993172,178.000000 
	C94.326431,178.000763 96.660416,177.964127 98.992798,178.009689 
	C104.856834,178.124176 105.969704,179.181839 105.960808,184.529602 
	C105.951965,189.845490 104.848167,190.869873 98.929298,190.984406 
	C96.930038,191.023102 94.929535,190.996689 92.465324,190.536835 
	C91.998428,186.049088 91.995804,182.024551 91.993172,178.000000 
z"/>
<path fill="#000000" opacity="1.000000" stroke="none" 
	d="
M91.533173,178.000275 
	C91.995804,182.024551 91.998428,186.049088 92.001907,190.536819 
	C88.309532,191.000107 84.616302,191.000198 80.462585,191.000153 
	C80.004097,186.975449 80.006111,182.950912 80.009872,178.463181 
	C83.698814,178.000183 87.385994,178.000366 91.533173,178.000275 
z"/>
<path fill="#004D12" opacity="1.000000" stroke="none" 
	d="
M27.999432,191.000000 
	C25.696815,190.996185 23.393635,191.023773 21.091692,190.982422 
	C15.171876,190.876053 14.093840,189.904678 14.035157,184.711594 
	C13.972817,179.194763 15.109778,178.114532 21.157656,178.007690 
	C23.130741,177.972839 25.104904,177.998840 27.541843,178.461685 
	C28.003220,182.950912 28.001326,186.975449 27.999432,191.000000 
z"/>
<path fill="#000000" opacity="1.000000" stroke="none" 
	d="
M28.460093,191.000153 
	C28.001326,186.975449 28.003220,182.950912 28.005878,178.463181 
	C31.693705,178.000198 35.380764,178.000412 39.527328,178.000305 
	C39.990150,182.024551 39.993462,186.049088 39.997337,190.536819 
	C36.305519,191.000092 32.613136,191.000198 28.460093,191.000153 
z"/>
<path fill="#000000" opacity="1.000000" stroke="none" 
	d="
M60.874062,190.964508 
	C58.370682,190.068909 54.860062,189.512161 54.542213,188.188660 
	C53.862240,185.357254 53.814690,181.267441 55.449249,179.334717 
	C56.771313,177.771469 61.874561,177.394302 63.580246,178.714142 
	C65.408363,180.128784 65.521172,184.110962 65.837318,187.031647 
	C66.164207,190.051544 64.003380,190.996490 60.874062,190.964508 
z"/>
<path fill="#000000" opacity="1.000000" stroke="none" 
	d="
M65.918839,152.027313 
	C65.920738,153.686432 65.990074,155.335556 65.982368,156.984314 
	C65.951546,163.576767 64.536453,164.969696 58.008755,163.757523 
	C56.507519,163.478745 54.728077,161.418625 54.231628,159.819672 
	C53.577408,157.712601 54.063862,155.251343 54.088112,152.484879 
	C54.116322,152.027390 54.053017,152.006424 54.500801,152.022217 
	C58.625767,152.051224 62.302948,152.064423 65.980133,152.077606 
	C65.980133,152.077621 65.950851,152.017166 65.918839,152.027313 
z"/>
<path fill="#000000" opacity="1.000000" stroke="none" 
	d="
M65.976639,216.513672 
	C62.306370,216.975403 58.642330,216.981186 54.523201,216.981049 
	C54.048649,215.324982 54.003620,213.674652 54.014210,212.024704 
	C54.056618,205.417923 55.459084,204.031311 61.986252,205.240921 
	C63.488689,205.519348 65.265182,207.577133 65.769501,209.177261 
	C66.433456,211.283920 65.964622,213.747574 65.976639,216.513672 
z"/>
<path fill="#004911" opacity="1.000000" stroke="none" 
	d="
M40.165001,125.640076 
	C40.523594,125.175262 40.852253,125.144257 41.181252,125.140060 
	C53.725529,124.980034 52.899651,125.418221 53.175964,112.647278 
	C57.431606,112.188766 61.658360,112.172066 66.325775,112.194626 
	C66.805809,116.224365 66.845192,120.214836 66.722092,124.824310 
	C66.340897,125.641914 66.120834,125.839027 65.448814,126.031555 
	C54.003483,126.010895 54.003456,126.010895 54.027466,136.917496 
	C54.028187,137.245712 54.031002,137.573929 53.887188,138.067719 
	C53.547806,138.451828 53.352421,138.668884 53.155384,138.884430 
	C49.145924,138.864212 45.136463,138.844009 40.686115,138.796722 
	C40.208561,134.541885 40.171894,130.314133 40.165001,125.640076 
z"/>
<path fill="#004C12" opacity="1.000000" stroke="none" 
	d="
M65.899437,126.034637 
	C66.120834,125.839027 66.340897,125.641914 66.721008,125.295784 
	C70.883751,125.156807 74.885109,125.165367 79.328087,125.202141 
	C79.839134,129.171036 79.908562,133.111710 79.982712,137.511414 
	C75.623871,137.985535 71.260323,138.000641 66.439476,137.998871 
	C65.982185,137.982010 65.967140,137.966095 65.973846,137.508713 
	C65.953522,133.379105 65.926476,129.706863 65.899437,126.034637 
z"/>
<path fill="#004D12" opacity="1.000000" stroke="none" 
	d="
M53.142738,139.350800 
	C53.352421,138.668884 53.547806,138.451828 54.344582,138.091080 
	C58.620804,137.954605 62.293972,137.960342 65.967140,137.966095 
	C65.967140,137.966095 65.982185,137.982010 65.973099,137.974152 
	C65.983849,142.356735 66.003677,146.747192 66.001816,151.607620 
	C62.302948,152.064423 58.625767,152.051224 54.490852,152.053955 
	C53.732113,147.985641 53.431103,143.901398 53.142738,139.350800 
z"/>
<path fill="#002608" opacity="1.000000" stroke="none" 
	d="
M53.495979,242.944199 
	C53.059174,240.917145 53.046001,238.926163 53.109634,236.937653 
	C53.291592,231.251663 54.737312,230.008286 60.341599,230.098129 
	C64.277550,230.161240 66.171440,231.913467 66.078339,235.858887 
	C66.027504,238.013336 66.072052,240.170059 66.060631,242.821411 
	C62.016685,243.205200 57.985691,243.093292 53.495979,242.944199 
z"/>
<path fill="#000000" opacity="1.000000" stroke="none" 
	d="
M56.565323,268.712524 
	C52.548218,265.711823 53.251301,261.506165 55.025524,258.769470 
	C56.067268,257.162628 60.469784,256.979950 63.176762,257.385071 
	C67.188950,257.985565 66.113289,261.831848 65.777321,264.347443 
	C65.559776,265.976257 63.913776,267.936737 62.382385,268.716278 
	C60.938324,269.451355 58.806423,268.835144 56.565323,268.712524 
z"/>
<path fill="#000000" opacity="1.000000" stroke="none" 
	d="
M65.973846,137.508698 
	C62.293972,137.960342 58.620804,137.954605 54.490242,137.925507 
	C54.031002,137.573929 54.028187,137.245712 54.027466,136.917496 
	C54.003456,126.010895 54.003483,126.010895 65.448814,126.031555 
	C65.926476,129.706863 65.953522,133.379105 65.973846,137.508698 
z"/>
</svg>