<?xml version="1.0" standalone="no"?>
<!DOCTYPE svg PUBLIC "-//W3C//DTD SVG 20010904//EN"
 "http://www.w3.org/TR/2001/REC-SVG-20010904/DTD/svg10.dtd">
<svg version="1.0" xmlns="http://www.w3.org/2000/svg"
 width="757.000000pt" height="758.000000pt" viewBox="0 0 757.000000 758.000000"
 preserveAspectRatio="xMidYMid meet">

<g transform="translate(0.000000,758.000000) scale(0.100000,-0.100000)"
fill="#000000" stroke="none">
<path d="M1420 7335 l0 -235 -235 0 -235 0 0 -3315 0 -3315 235 0 235 0 0
-235 0 -235 2130 0 2130 0 0 235 0 235 235 0 235 0 0 1425 0 1425 -235 0 -235
0 0 1650 0 1650 235 0 235 0 0 240 0 240 -235 0 -235 0 0 235 0 235 -2130 0
-2130 0 0 -235z m4260 -470 l0 -235 -1420 0 -1420 0 0 230 0 230 713 3 c391 1
1030 3 1420 5 l707 2 0 -235z m-2850 -480 l0 -235 -230 0 -230 0 0 235 0 235
230 0 230 0 0 -235z m2840 -3310 l0 -235 -230 0 -230 0 0 235 0 235 230 0 230
0 0 -235z m-470 -475 l0 -230 -235 0 -235 0 0 230 0 230 235 0 235 0 0 -230z"/>
</g>
</svg>
