<?xml version="1.0" standalone="no"?>
<!DOCTYPE svg PUBLIC "-//W3C//DTD SVG 20010904//EN"
 "http://www.w3.org/TR/2001/REC-SVG-20010904/DTD/svg10.dtd">
<svg version="1.0" xmlns="http://www.w3.org/2000/svg"
 width="428.000000pt" height="395.000000pt" viewBox="0 0 428.000000 395.000000"
 preserveAspectRatio="xMidYMid meet">

<g transform="translate(0.000000,395.000000) scale(0.100000,-0.100000)"
fill="#000000" stroke="none">
<path d="M1620 3455 l0 -135 -135 0 -135 0 0 -135 0 -135 -135 0 -135 0 0
-135 0 -135 135 0 135 0 0 -135 0 -135 268 2 267 3 3 133 3 132 129 0 130 0 0
135 0 134 -132 3 -133 3 -3 133 -3 132 136 0 135 0 0 135 0 135 -265 0 -265 0
0 -135z"/>
<path d="M2968 2108 l-3 -133 -132 -3 -132 -3 -3 -132 -3 -132 -132 -3 -133
-3 0 -129 0 -130 130 0 130 0 0 -135 0 -135 270 0 270 0 0 135 0 135 135 0
135 0 0 130 0 129 -132 3 -133 3 -3 268 -2 267 -130 0 -129 0 -3 -132z"/>
<path d="M1080 1565 l0 -135 -135 0 -135 0 0 -130 0 -130 -135 0 -135 0 0
-135 0 -135 135 0 135 0 0 -135 0 -135 270 0 270 0 0 135 0 135 135 0 136 0
-3 133 -3 132 -132 3 -133 3 0 134 0 135 130 0 130 0 0 130 0 130 -265 0 -265
0 0 -135z"/>
</g>
</svg>
