<?xml version="1.0" standalone="no"?>
<!DOCTYPE svg PUBLIC "-//W3C//DTD SVG 20010904//EN"
 "http://www.w3.org/TR/2001/REC-SVG-20010904/DTD/svg10.dtd">
<svg version="1.0" xmlns="http://www.w3.org/2000/svg"
 width="538.000000pt" height="624.000000pt" viewBox="0 0 538.000000 624.000000"
 preserveAspectRatio="xMidYMid meet">

<g transform="translate(0.000000,624.000000) scale(0.100000,-0.100000)"
fill="#000000" stroke="none">
<path d="M1010 4670 l0 -130 -505 0 -505 0 0 -2270 0 -2270 2650 0 2650 0 0
2270 0 2270 -502 2 -503 3 -3 128 -3 127 -124 0 -125 0 0 -130 0 -130 -125 0
-124 0 -3 128 -3 127 -122 3 -122 3 -3 -128 -3 -128 -882 -3 -882 -2 -3 127
-3 128 -122 3 -122 3 -3 -128 -3 -128 -125 0 -125 0 -3 128 -3 127 -124 0
-125 0 0 -130z"/>
</g>
</svg>
